<?xml version="1.0" encoding="UTF-8"?>
<svg id="Layer_2" data-name="Layer 2" xmlns="http://www.w3.org/2000/svg" viewBox="0 0 432 432">
  <defs>
    <style>
      .cls-1 {
        fill: #594a42;
      }
    </style>
  </defs>
  <path class="cls-1" d="m169.19,231.96c2.02-2.76,4.75-4.61,7.09-7.02,3.94-3.9,7.65-8.11,11.16-12.39,11.65-13.73,20.22-29.69,32.08-43.31,3-3.4,6.21-6.67,9.85-9.45,3.57-2.88,8.02-4.63,11.77-7.07,12.48-2.42,26.83-1.5,36.64,7.42-6.43,1.76-12.57,4.73-18.13,8.41-16.32,10.61-25.83,28.37-27.61,47.56,0,0,0,.08,0,.08l-.02.07s-1.3,5.78-1.3,5.78c-.22,1.06-.77,3.58-.91,4.66,0,.03,0,.06,0-.01,0-.04-.03-.19-.06-.27-.11-.44-.8-.77-1.2-.65-.28.06-.37.16-.48.25-.02.02,0,0,0,0,0,0,.06-.09.06-.09,3.9-6.94,6.48-14.68,9.81-21.9,3.73-7.08,8.04-13.78,12.92-20.12,3.08-3.9,6.34-7.83,10.34-10.86,2.37-1.81,5.25-2.9,7.78-4.47,3.37-2,6.67-4.24,9.52-6.87,0,0,.71.71.71.71-2.95,2.78-6.24,5.05-9.65,7.13-2.5,1.6-5.28,2.67-7.62,4.48-3.86,3.01-6.98,6.85-9.97,10.73-4.71,6.29-8.99,13-12.5,20.03-3.17,7.32-5.57,14.86-9.29,21.98,0,0-.22.37-.22.37-.13.2-.29.43-.51.58,0,.02-.25.17-.45.2-.05.02-.33.06-.58-.03-.5-.17-.65-.46-.77-.85-.06-.21-.03-.49-.02-.62.08-.64.19-1.28.3-1.9.32-1.82,1.37-6.91,1.77-8.79.77-8.96,3.66-19.55,8.63-27.79,6.55-11.37,17.02-20.27,29.02-25.41,3-1.28,6.05-2.38,9.26-3.09l-.23.86c-9.17-8.34-24.11-8.67-34.82-6.71-3.61,2.82-7.73,4.5-11.1,7.56-3.4,2.81-6.41,6.11-9.22,9.55-5.67,6.88-10.59,14.34-15.44,21.9-7.39,11.35-15.5,22.38-25.17,31.95,0,0-2.47,2.36-2.47,2.36-2.65,2.24-4.89,4.92-8.45,5.9,0,0-.52-.85-.52-.85h0Z"/>
  <path class="cls-1" d="m231.57,226.12c21.52-13.13,48.42-29.44,57.5-54.09,0,0,.07-.33.07-.33,4.04-.6,8.14.95,11.18,3.63,2.92,2.66,4.81,6.19,6.01,9.8,1.14,3.47,2.58,6.77,4.08,10.16,7.39,15.48,6.45,27.76,1.42,43.76-.65,1.97-2.09,6.14-2.95,8-1.31,2.64-3.05,5.09-5.06,7.21-14.19,14.41-37.67,18.96-56.86,22.48-14.61,2.48-29.3,4.42-44.1,5.2-7.46.36-14.82.78-22.33.09-7.27-1.47-14.6-2.67-21.87-4.3-23.33-5.1-44.13-18.34-43.55-44.77.05-11.06.59-22.92,6.12-32.85,0,0,.79-1.2.79-1.2l.4-.6c.25-.28,1.13-1.34,1.41-1.65,0,0,1.08-.98,1.08-.98,1.67-1.42,3.72-2.43,6.01-2.33,0,0-.17.62-.17.62-.19,2.67-.32,5.36-.32,8,.04,7.59.87,16.06,6.83,21.42,0,0-.76.3-.75.3,2.46-8.95,4.97-17.87,7.76-26.72,2.88-8.88,5.58-17.79,10.06-26.07,1.06-1.87,2.23-3.74,3.91-5.12,2.13-1.62,4.42-2.96,6.72-4.32,11.4-6.17,27.21-12.62,40.31-9.97,0,0,1.33.3,1.33.3,0,0-1.19.62-1.19.62-22.02,14.34-40,39.06-37.31,66.37.22,3.71,1,7.69,1.78,11.33,0,0-.98.16-.98.16-.83-7.07,0-14.13,1.07-21.1,3.25-20.78,13.05-41.86,31.38-53.32,2.54-1.38,5.03-3.04,7.04-5.13.17-.17.32-.35.48-.52.13-.15.3-.4.31-.42.03-.07-.05.14.09.3.05.12.28.18.26.17.02.01.07,0,.08,0-.25.06-.57.17-.83.31,0,0-.5-.86-.5-.86.24-.15.46-.27.72-.39.35-.13.85-.33,1.18.11.19.26.12.62.09.66-1.23,2.36-3.41,3.99-5.49,5.57-25.83,15.32-34.08,46.04-34.89,74.56,0,0,.39,4.52.39,4.53-3.03-8.8-5.01-18.13-4.18-27.53,1.91-23.76,18.74-44.04,38.81-55.66,0,0,.14.92.14.92-4.5-.67-9.09-.05-13.51.93-8.9,2.08-17.48,5.62-25.44,10.11-2.8,1.73-6.03,3.09-8.1,5.72-3.44,4.52-5.63,9.84-7.9,15.1-5.22,12.85-9.24,26.19-12.64,39.63,0,0-.06.61-.06.61,0,0-.69-.31-.69-.31-10.57-5.29-10.18-20.79-6.95-30.49,0-.04.48.61.48.61-1.61.18-3.26,1.22-4.44,2.35,0,0-.92.93-.92.93-.16.25-1.02,1.31-1.2,1.58,0,0-.34.58-.34.58,0,0-.67,1.15-.67,1.15-4.06,8.04-4.58,17.61-4.82,26.49,0,0,.04,5.48.04,5.48-.04,25.05,19.34,36.78,41.41,42.09,7.1,1.72,14.35,3,21.5,4.58,7.2.75,14.65.52,21.92.2,21.97-1.21,44.05-4.26,64.97-11.21,12.94-4.54,28.03-10.06,36.79-20.95,9.59-15.7,13.16-34.48,4.01-51.48-1.53-3.3-3.15-6.83-4.26-10.33-2.02-6.72-7.45-12.59-14.66-13.16,0,0,.45-.37.44-.37-4.35,20.38-22.49,35.51-39.52,45.89-5.94,3.45-12.05,6.58-18.55,8.86,0,0-.41-.91-.41-.91h0Z"/>
  <path class="cls-1" d="m130.89,257.44c2.83,1.07,5.67,2.01,8.46,3.27,0,0,1.04.51,1.04.51.92.59,1.89.85,3.01,1.02,4.67.65,9.35.86,14.01,1.79,2.7,1.08,5.11,2.7,7.5,4.31,0,0-.49.87-.49.87-1.38-.61-4.81-2.11-6.15-2.67-.68-.28-1.34-.55-1.87-.59-4.41-.4-9.08-.77-13.38-2.23-1.59-.43-2.73-1.27-4.14-2.07-2.63-1.33-5.46-2.4-8.31-3.25l.31-.95h0Z"/>
  <path class="cls-1" d="m167.7,264.02c1.94-1.2,4.45-1.26,6.54-.51,1.74.59,3.68.84,5.65,1.09,0,0,.14.99.14.99-2.11.7-4.34.66-6.47,0-.91-.31-1.72-.51-2.67-.6-.9-.09-1.88-.09-2.82-.04,0,0-.36-.93-.36-.93h0Z"/>
  <path class="cls-1" d="m190.85,271.33c3.26-.49,5.78.9,9.15.67,10.8.07,21.79.42,32.52-1.25,1.49-.24,3.03-.51,4.33-.91,1.39-.54,2.95-1.16,4.38-1.6,4.48-1.53,9.12-2.33,13.77-3.1,2.75-.47,6.53-1.34,9.34-1.62,0,0,0,1,0,1-1.43.05-3,.42-4.49.78-4.54,1.08-8.89,2.88-13.31,4.32-2.7.8-6.25,1.94-8.84,2.91-3.24.86-6.32.95-9.57,1.16-5.13.2-10.21.31-15.34.08-5.47-.37-10.93,1.23-16.45.57-1.95-.38-3.71-1.25-5.56-2.01,0,0,.08-1,.08-1h0Z"/>
  <path class="cls-1" d="m276.35,258.38c5.88-3.24,12.32-5.68,17.12-10.53,0,0,3.62-3.54,3.62-3.54,3.44-3.38,7.64-7.04,10.53-10.79,0,0,.88.48.88.48-1.58,3.16-3.92,5.71-6.24,8.29-3.56,3.8-7.33,7.25-11.69,10.16-4.48,2.56-9.13,4.66-13.79,6.83,0,0-.43-.9-.43-.9h0Z"/>
  <path class="cls-1" d="m207.59,157.1c3.96-2.15,9.11-2.69,13.2-.58,0,0-.33.94-.33.94-1.07-.13-2.08-.29-3.12-.32-3.15-.16-6.25.28-9.36.89,0,0-.38-.92-.38-.92h0Z"/>
  <path class="cls-1" d="m200.35,164.9c3.27-1.91,7.01-3.12,10.83-3.1.56-.03,1.15.1,1.61.77,0,0-.15.99-.15.99-1.01.93-1.84.36-2.96.55-3.02.21-5.96.94-8.91,1.71,0,0-.41-.91-.41-.91h0Z"/>
  <path class="cls-1" d="m197.89,170.66c3.27-.92,6.55-2.72,9.97-1.32,0,0-.18.98-.18.98-2.41.1-4.78-.28-7.16.17-.77.17-1.61.42-2.13,1.03l-.51-.86h0Z"/>
  <path class="cls-1" d="m187.83,177.75c2.54-1.08,5.07-1.89,7.71-2.68,2.62-.79,5.56-1.31,8.17-.12,0,0-.13.99-.13.99-2.65.58-5.12.29-7.78.52-2.6.2-5.22.98-7.52,2.18,0,0-.45-.89-.45-.89h0Z"/>
  <path class="cls-1" d="m182.15,186.67c2.97-1.53,6.47-2.83,9.84-1.98,0,0-.06,1-.06,1-1.56.37-3.08.66-4.66.97-1.57.32-3.15.68-4.77.95,0,0-.35-.94-.35-.94h0Z"/>
  <path class="cls-1" d="m272.6,170.23c2.73-.7,5.74-.64,8.3.66.4.16.77.5.72,1.23l-.63.78c-1.07.47-1.21-.18-2.05-.41-1.98-.75-4.1-.99-6.24-1.27,0,0-.1-.99-.1-.99h0Z"/>
  <path class="cls-1" d="m268.46,174.6c1.35.25,2.47-.1,3.8.13,1.27.17,2.51.83,3.25,1.89l-.66.75c-1.05-.47-1.9-1.02-2.93-1.51-.95-.43-2.29-.99-3.24-.29,0,0-.23-.97-.23-.97h0Z"/>
  <path class="cls-1" d="m253.46,185.49c3-.08,6.09-.38,8.98.59.97.36,1.86,1.02,2.41,1.97l-.6.8c-1.03-.15-1.78-.52-2.61-.87-2.42-1.26-5.28-2.11-8.03-1.49,0,0-.16-.99-.16-.99h0Z"/>
  <path class="cls-1" d="m262.34,179.78c2.4-.47,5.36-.51,7.19,1.37,0,0-.52.85-.52.85-1.11-.14-2.13-.34-3.25-.55-1.1-.2-2.25-.38-3.39-.67l-.02-1h0Z"/>
  <path class="cls-1" d="m179.47,194.56c.02-.32.16-.46.33-.57,2.38-1.68,5.52-2.35,8.35-1.61,0,0-.18.98-.18.98-2.06-.22-4.15.12-6,1.05-.45.23-.89.49-1.3.79-.13.1-.28.18-.54.1l-.67-.74h0Z"/>
  <path class="cls-1" d="m250.4,189.63c.22-.23.42-.25.62-.22,2.91.25,5.73,1.77,7.42,4.15,0,0-.77.63-.77.63-1.43-1.49-3.25-2.59-5.26-3.06-.49-.12-1-.2-1.5-.23-.17,0-.33-.04-.47-.27l-.03-1h0Z"/>
  <path class="cls-1" d="m134.58,195.34c1.35-1.91,3.3-3.83,5.78-3.88,0,0,.29.96.29.96-.82.72-1.66,1.28-2.57,1.88-.89.6-1.81,1.22-2.8,1.75l-.7-.72h0Z"/>
  <path class="cls-1" d="m133.25,201.3c-.14-.25-.1-.39-.02-.51,1.03-1.82,2.96-3.2,5.07-3.3,0,0,.15.99.15.99-1.35.37-2.5,1.12-3.36,2.2-.21.27-.4.55-.56.84-.04.1-.12.18-.37.17l-.92-.39h0Z"/>
  <path class="cls-1" d="m174.92,205.19c3.12-1.12,5.45-4,8.95-4.1,0,0,.12.99.12.99-2.92.9-6.38,1.52-8.48,3.92,0,0-.58-.81-.58-.81h0Z"/>
  <g>
    <path class="cls-1" d="m93.63,156.98c-.07.2-.25.37-.33.61-.12.34-.08.77-.2,1.11-.11.31-.36.6-.48.94-.18.51-.12,1.1-.29,1.58-.19.54-.66.99-.85,1.53-.24.68-.03,1.71-.32,2.52-.14.41-.54.65-.79.94-.31.35-.41.85-.75,1.15-.1.08-.2.24-.33.19-.88-.31-.28-2.66-1.66-3.72-.36-.28-1.04-.52-1.48-.68-1.05-.37-1.89-1.35-2.94-1.73-.14-.05-.28-.06-.43-.08-1.45-.01-3.76-1.79-4.58.52-.3.85-.15,1.82-.42,2.6-.16.44-.87.42-1.28,1.57-.08.24-.12.45-.19.66.05.63,0,.99-.15,1.4-.1.27-.23.53-.36.9-.13.37-.09.58.05.94.53,1.41-.11.95,1.47,1.67.4.18.8.55,1.21.69.41.14.92.1,1.36.25,1.36.48,2.75.86,4.18,1.13,1.08.19.86.04,1.71-.2.21-.04.46-.11.54-.34.01-.15.07-.32.13-.49.1-.27.29-.28.56-.18.37.13.32.38.23.65l-.11.31c-.13.37.56,1.23.09,2.55-.28.78-.8.75-.99,1.29-.25.71-.05,1.55-.33,2.33-.16.44.04.97-.06,1.24-.08.24-.41.39-.49.63-.14.41.02.81-.12,1.22-.18.51-1.12,1.78-1.43,2.21-.37.52-1.34.67-1.92.47-.88-.31-.88-1.5-.61-2.28.22-.61.64-1.15.86-1.8.08-.24-.27-1.17-.42-1.41-.63-1.14-.59-1.47-2.05-1.98-.54-.19-.95-.56-1.49-.76-1.15-.41-2.44-.44-3.59-.85-1.05-.37-1.71-1.21-2.76-1.59-1.19-.42-2.5-.16-3.66-.57-.51-.18-.89-.51-1.37-.67-.78-.28-1.38-.3-2.17-.12-.46.11-.92.02-1.39.16-.6.17-.7.67-1.1,1.06-.88.87-1.04.24-1.59,1.81-.14.41-.94.7-1.31.57-.92-.32-.84-2.17-.57-2.91.47-1.32,1.68-2.27,2.14-3.56.23-.65.62-1.31.87-2.02.26-.75.89-1.33,1.15-2.07.34-.95-.47-1.69-.17-2.54.23-.65,1.03-1.93,1.91-1.62.54.19,1.35,2.12,1.15,2.7-.11.31-.6.51-.67.72-.11.31-.22.73-.1,1.03.1.26,2.43,1.89,2.8,2.02.78.28,1.64.23,2.48.53,1.22.43,2.93.46,3.45-1,.25-.71.94-1.04,1.18-1.72.17-.48-.05-.82.08-1.19.16-.44.56-.83.75-1.26.14-.29.26-.63.37-.94l.2-.58c.6-1.7.83-2.57-1.19-3.55-.4-.18-.78-.5-1.18-.65-.34-.12-.73-.1-1.07-.22-.44-.16-.85-.41-1.29-.57-2.34-.83-5.49,2.45-6,2.27-.58-.2-.28-2.24-.12-2.68.17-.48.45-.95.63-1.46.25-.71.26-1.59.45-2.13.08-.24.22-.42.3-.62.1-.27.15-.52.23-.76.1-.27.26-.52.37-.82.17-.48.11-.95.29-1.46.28-.78,1.31-1.45,2.13-1.16.95.34,1.45,2.8,2.18,3.44.38.33.65.65.97,1.03.17.17.39.29.6.36l1.97.7c.54.19,1.09.27,1.67.47.81.29,1.65.62,2.5.92.88.31,1.84.42,2.75.74.58.2.87.88,1.86,1.23,1.36.48,3.86.87,5.22.35,1.1-.41,2.23-2.65,3.49-2.2.34.12.77.85.64,1.22Z"/>
    <path class="cls-1" d="m80.2,133.21c-.2.43-.32,1.6-.19,2.04.08.29-.08.58.11.84.39.63.65.82,1.06,1.05l.53.3c.69.39,1.25.94,1.91,1.31.57.32,1.2.3,1.76.61.28.16.53.3.8.49.72.48,1.21,1.3,1.9,1.68.44.54,1.29,1.01,1.86,1.33.38.21.79.28,1.14.47.53.3.98.67,1.52.97.57.32,2.45,1.29,3.01,1.48.7.23,2.85.15,3.25-.57.12-.22.08-.74.15-.86.18-.31.85-.35,1.14-.19.94.53.85,1.22.41,2-.3.53-.75.98-1.04,1.48-.26.47-.13,1.12-.48,1.75-.37.66-1.12.82-1.5,1.51-.09.16.18.72-.49,1.91-.14.25-.19.56-.33.81-.35.63-1.04.98-1.38,1.58-.09.16-.13.38-.22.54-.29.29-.77.19-1.08.01-.31-.18-.56-.48-.67-.79-.06-.12.27-.63.31-.78.28-.79-.1-1,.41-1.92.03-.64-2.03-2.12-2.52-2.65-.8-.86-1.33-1.45-2.4-2.05-.79-.44-1.73-.6-2.48-1.02-.44-.25-.76-.63-1.2-.88-1.04-.58-1.91-.49-2.54-.84-.66-.37-1.13-1.08-1.85-1.49-.53-.3-1.09-.57-1.66-.8-.43-.2-1.14-.18-1.45-.36-.22-.12-.63-.35-.87-.36-.37,0-1.52.51-1.73.81-.31.49-1.66,2.16-2.23,2.22-.23.04-.62-.14-.81-.25-.6-.33-1.06-1.21-.69-1.87.11-.19.55-.39.74-.74.42-.75.55-1.72.97-2.47s1.16-1.33,1.6-2.12c.33-.6.27-1.37.59-1.94.3-.53.96-.91,1.28-1.47.3-.53.27-1.21.6-1.81.4-.72,1.39-1.37,2.23-.9.47.26.74,1.4.54,1.91Z"/>
    <path class="cls-1" d="m117.06,122.45c-.05.83-.28,1.7-.74,2.4-.43.67-.67,1.44-1.18,2.09-.49.62-1.31.85-1.86,1.56-.36.45-.68.98-1.06,1.46-.56.71-1.41,1.09-1.98,1.83-.6.76-.9,1.67-1.5,2.44-.29.37-.67.62-.96.99s-.28.88-.5,1.16c-.09.11-.18.18-.31.22-.56.25-2.04,1.78-2.44,2.29-.51.65-.49,1.49-.98,2.12-.4.51-.97.71-1.43,1.3-.22.28-.66.31-.94.09-.88-.69.44-2.08.44-2.49,0-.59.53-2.01.15-2.4-.7-.69-.31-1.07-1.5-2-.68-.53-1.21-1.32-1.92-1.87-.42-.33-.87-.59-1.26-.9-.28-.22-.52-.5-.78-.7-.71-.56-1.57-.45-2.28-1.01-1.25-.98-1.91-2.41-3.1-3.4l-1.08-.9c-.34-.27-.87-.64-1.2-.57-1.22.28-1.28-.59-1.88-.24-.72.45-.86-.31-2.25,1.12-.84.9-1.84,1.94-3,1.03-.76-.6-.04-1.64.35-2.2.46-.65.22-1.39.6-1.87.13-.17.32-.3.52-.37.36-.17.55-.35.7-.55.18-.23.31-.45.53-.73.24-.31.57-.56.82-.87.36-.45.47-.95.75-1.42.08-.16,1.26-1.9,1.35-2.01.29-.37.83-.31,1.01-.53.33-.42.5-.98.85-1.44.13-.17,1.9-1.9,2-1.96.53-.32,1.11.05,1.74,0,.1-.01.32.12.41.18.4.31.59,1.7.26,2.12-.36.45-.89.67-1.27,1.15-.44.57-.63,1.33-.86,2.03-.35.91.31,1.48.99,2.01l.14.11c.48.38,1.07.56,1.55.94.65.51,1.15,1.22,1.77,1.71.28.22.6.29.85.49.37.29.7.69,1.09,1,.57.44,1.18.88,1.78,1.35.65.51,1.26,1.08,1.91,1.59.59.47,1.24.93,1.97,1.22.3.14.72.2,1.08.48.14.11.24.28.41.41,1.16.91,2.78.72,3.67-.42.64-.82.91-1.8,1.49-2.54.18-.23.5-.34.68-.57.04-.06.06-.14.1-.19.07-.73,1.04-1.33,1.07-3.46,0-.23-.58-1.24-.72-1.53-.41-.87-1.36-1.53-1.68-2.41-.13-.42-.07-.61-.38-1.03-.24-.33-.82-.88-.47-1.33,1-1.27,1.86.13,2.87.37.32.06.61.16.92.4l.63.54c.45.36.8.85,1.25,1.21.34.27.78.34,1.12.61.17.13,1.69,1.69,1.69,1.87Z"/>
    <path class="cls-1" d="m137.26,104.89c-.21.8-.61,1.61-1.19,2.21-.55.57-.94,1.28-1.57,1.82-.6.52-1.45.58-2.13,1.17-.44.38-.85.83-1.32,1.23-.68.59-1.59.8-2.3,1.41-.74.63-1.21,1.47-1.95,2.1-.35.3-.78.48-1.13.78s-.44.81-.72,1.04c-.11.09-.21.14-.34.15-.6.13-2.35,1.35-2.84,1.78-.63.54-.77,1.37-1.37,1.89-.49.42-1.08.5-1.66,1-.27.23-.7.18-.94-.1-.73-.85.84-1.95.92-2.36.12-.58.91-1.87.61-2.33-.55-.81-.09-1.1-1.08-2.25-.56-.66-.93-1.53-1.52-2.21-.35-.41-.73-.75-1.06-1.13-.23-.27-.41-.59-.63-.84-.59-.68-1.45-.75-2.04-1.43-1.03-1.2-1.4-2.74-2.38-3.93l-.89-1.09c-.28-.33-.73-.8-1.06-.8-1.25.03-1.14-.83-1.79-.6-.79.3-.78-.47-2.42.66-1,.72-2.19,1.54-3.15.42-.63-.74.28-1.61.77-2.09.58-.54.48-1.32.95-1.71.16-.14.37-.23.58-.26.39-.1.6-.23.8-.4.22-.19.39-.38.66-.61.3-.26.67-.43.97-.69.44-.38.65-.84,1.01-1.25.11-.14,1.6-1.61,1.71-1.71.35-.3.88-.14,1.1-.33.41-.35.68-.87,1.12-1.24.16-.14,2.23-1.49,2.34-1.53.58-.21,1.08.26,1.71.33.1,0,.29.18.36.26.33.38.25,1.78-.16,2.13-.44.38-1.01.48-1.47.88-.55.47-.88,1.18-1.24,1.82-.52.83.01,1.51.58,2.16l.12.14c.4.46.94.76,1.34,1.22.54.63.89,1.42,1.4,2.02.23.27.53.4.74.64.3.36.55.81.88,1.19.47.55.99,1.1,1.48,1.67.54.63,1.02,1.3,1.56,1.93.49.57,1.04,1.15,1.69,1.58.27.2.66.33.97.69.12.14.18.32.32.48.96,1.12,2.59,1.24,3.68.31.79-.68,1.24-1.59,1.95-2.2.22-.19.55-.24.77-.43.05-.05.09-.12.14-.17.21-.7,1.28-1.1,1.72-3.19.04-.23-.33-1.33-.41-1.64-.23-.94-1.04-1.76-1.17-2.69-.04-.44.05-.61-.17-1.09-.18-.37-.64-1.02-.2-1.39,1.23-1.06,1.8.49,2.74.92.3.12.57.27.82.57l.51.65c.38.44.61.99.99,1.43.28.33.7.49.98.81.14.16,1.33,1.99,1.29,2.17Z"/>
    <path class="cls-1" d="m147.8,72.63c.58,1,.83,2.22,1.43,3.25.16.28.42.51.58.79.47.81.44,1.54-.4,2.03-.28.16-.67-.07-.89-.23-.84-.51-.97-.02-1.89-1.03-.29-.29-.71-.29-1.04-.56-.76-.6-1.24-.28-1.95-.99-.21-.21-1.59-.45-1.81-.32-.44.25-.75,1.14-1.26,1.56-.86.67-.53,1.52-.08,2.3.13.22.3.45.43.67.65,1.12,1.6,2.03,2.25,3.15.4.69.59,1.45,1.01,2.16.49.84.96,1.73,1.45,2.57.6,1.03,1.58,1.71,2.16,2.7.43.75.6,1.61,1,2.29.43.75,2.37,2,3.24,1.49.72-.42,1.21-1.21,1.93-1.62.44-.25,1.78.34,2.05.81.4.68-.29,1.79-.88,2.14-.75.43-1.63.57-2.4,1.02-.53.31-.9.81-1.43,1.12-.5.29-1.24.59-1.79.79-.5.21-1.14.04-1.58.29-1,.58-.93,1.7-1.9,2.31-.42.28-.8.63-1.23.88-.84.49-3.5.79-4.08-.21-.29-.5.25-.94.65-1.17.69-.4,1.16-1.09,1.9-1.52l.47-.27c.19-.11.23-.18.31-.39.08-.22.28-.37.37-.59.25-.56.04-1.15-.27-1.68-.22-.37-.45-.7-.63-1.01-.22-.37-.34-.8-.56-1.17-.18-.31-.42-.59-.6-.9-.49-.84-.49-1.84-.9-2.56-.11-.19-.34-.3-.47-.52-.2-.34-.19-.76-.39-1.1-.29-.5-.82-.77-1.11-1.27s-.45-1.07-.76-1.6c-.54-.93-1.38-1.74-2.05-2.6-.28-.34-.97-1.52-1.3-1.66-1.01-.45-2.07-.84-3.1-.24-1.93,1.12-2.51,3.5-1.81,5.55.14.46.47,1.1.34,1.59-.19.61-.05,1.28-.73,1.68-.62.36-1.17-.15-1.48-.68-.42-.72-.72-1.46-1.14-2.17-.18-.31-.19-.76-.41-1.14-.38-.65-.92-1.22-1.31-1.9-.67-1.15-.85-2.75.49-3.53.31-.18.62-.15.97-.27.66-.3,1.31-.68,1.97-1.06l.31-.18c1.15-.67,2.18-1.48,3.33-2.15.5-.29,1.03-.52,1.53-.81.4-.24.71-.58,1.14-.83l.19-.11c.65-.38,1.59-.63,1.96-.85.87-.51,1.62-1.65,2.77-2.32.75-.43,1.64-.62,2.39-1.05.47-.27.75-.85,1.28-1.16,1.03-.6,2.52-.26,3.11.77.27.47.32.98.63,1.51Z"/>
    <path class="cls-1" d="m181.38,70.85c-.13.73.12,1.37.17,2.07.04.44-.02.73.09,1.18.24.83.67,4.48.28,5.11-.57.91-.79,2.05-1.46,2.88-.48.62-.69,1.33-1.16,1.98-.43.64-.8,1.33-1.14,2.02-.29.59-1.03.99-1.52,1.46-.28.29-.62.51-1,.64-1.09.37-2.39.58-3.62.99-2.01.68-3.1-.4-3.81-.16-.34.12-.59.39-.9.49h-.15c-1.64.33-2.46.04-3.94-.75-.41-.2-.72-.67-1.08-.96-.56-.42-1.42-.51-2.05-.79-.71-.29-2.07-2.53-2.89-3.28-.22-.19-.41-.43-.5-.7-.17-.51.15-.92,0-1.37-.13-.38-.95-.78-1.33-1.91-.34-1.02-.12-2.16-.21-3.23-.05-.59.25-.73.32-1.21.21-1.51-.23-2.28.63-3.78.67-1.17.43-2.46,1.25-3.61.86-1.16,1.19-1.88,2.44-2.68,1.27-.85,1.01-1.74,3.02-2.42.61-.21,1.24-.27,1.85-.47.82-.28,1.76-.18,2.59-.3.88-.1,1.1-.45,2.05,0,2.25,1.03,2.62,0,5.17,1.83.7.49,1.5.29,2.29,1.05.56.53,1.19.82,1.79,1.26,1.21.88,1.09,2.1,2.26,3.23.23.23.46.45.56.76.07.2.04.44,0,.68Zm-5.36,3.59c-.47-.6-.74-1.31-1.05-2-.87-2.02-1.22-3.84-2.76-5.49-.7-.72-1.79-2.74-2.77-2.83-.58-.03-1.01-.08-1.55-.31-.35-.15-.89-.38-1.26-.26-.27.09-.25.5-.83.7-.27.09-.57,0-.84.09-.31.1-1.1.9-2.13,1.25-.38.13-1.25.8-1.21,1.24.04.9-.54,1.55-.39,2.33.29,1.65-.02,3.54.16,5.22.08.92.28,1.96.57,2.81.34,1.02.86,1.99,1.2,3.01.48,1.43,1.52,2.6,2.11,4,.41,1,1.01,1.52,1.84,2.19.47.37.98.54,1.44.88.85.62,1.73.75,2.76.4.78-.26,1.36-.8,2.18-1.08.61-.21,1.26-.2,1.88-.4.51-.17.9-.61,1.23-.98.61-.66.95-1,1.01-1.97.1-1.97-.13-3.11-.66-5.02-.31-1.15-.18-2.11-.42-2.82-.11-.34-.26-.67-.48-.98Z"/>
    <path class="cls-1" d="m210.14,63.12c-.26.25-.98,1.82-1.43,2.31s-1.39.49-1.98.7c-.52.17-1.04.38-1.56.62-.17.09-.35.11-.53.13l-.64.08c-.75.09-1.37.67-2.16.76-.25.03-.83.02-1.03-.13.3-.51,1.33-1.03,1.83-1.37.3-.22.37-.52.6-.72,1.54-1.41,1.49-2.78,1.25-4.79-.09-.79-.57-1.17-.94-1.81-.33-.61-.43-.57-.94-.9-.35-.21-1.6-1.62-1.82-1.6-.25.03-.48.2-.77.24-.32.04-.59-.08-.91-.04-.68.08-1.31.55-2.06.64-1.68.2-1.87,1.34-2.18,2.76-.21.97-.43,1.61-.31,2.61.07.57.51.99.59,1.6l.1.89c.18,1.5,1.06,2.2,1.16,3.13.14,1.18-1.19,1.59-.94,3.7.08.64.31,1.12.49,1.72.17.49.16,1.07.32,1.52.16.42.84.34.95,1.34.03.29.03.58.06.86.19,1.61,1.12,1.86,2.62,2.23.52.12,1.91.25,2,.96.09.75-1.13,1.47-1.78,1.55-.43.05-.87,0-1.3.04-.93.11-1.79.46-2.72.57-.75.09-1.53-.04-2.28.05-.39.05-.74.2-1.1.24-.43.05-.81-.12-1.24-.07-.89.1-1.61.81-2.57.92-.82.1-2.87-.1-3-1.13-.1-.82.76-1.21,1.4-1.36.71-.16,1.01-.63,1.64-.88.9-.36.99-.48,1.43-1.44.17-.38.11-3.42.04-4.03-.05-.46-.21-.88-.27-1.35-.1-.86-.17-1.72-.27-2.58s.09-1.68,0-2.5c-.08-.71-.49-1.39-.58-2.18-.09-.75.08-1.5,0-2.21-.01-.11-.06-.17-.06-.25-.42-1.44-.49-3.53-2.31-3.9-.45-.09-1.02-.06-1.56,0-.57.07-1.14.17-1.6.22-.64.08-1.56-.9-1.62-1.48-.17-1.43,2.43-2.13,3.43-2.25.46-.05.93-.07,1.4-.09.51.01,1.15.26,1.55.22.71-.08,1.45-.64,2.66-.78,1.36-.16,1.48.23,2.56.21.43-.01.93.18,1.36.13.89-.1,1.29-1.06,2.65-1.22,1.18-.14,2.96.81,3.07.8.64-.08.98-.59,1.66-.67.32-.04.61-.04.9-.03.72-.01.57.26,1.16.33.52.08,1.06.06,1.52.29.35.18.49.2.67.17l.46-.05c.68-.08.98.32,1.43.77,1.02,1,2.12,1.42,2.34,2.99.05.46.28.84.33,1.3.09.79-.67,1.67-1.19,2.21Z"/>
    <path class="cls-1" d="m252.99,79.83c-.28,1.23-.12,1.11-1.07,1.75-.25.18-1.8,1.12-2,1.23-1.46.66-.68,1.38-3.55,1.11-1.15-.12-.98.6-1.83.45-.18-.03-.38.08-.52.06-.14-.02-.97-.72-1.17-.86-.17-.1-.66-.22-.68-.52.02-.14.38-.3.5-.39.5-.35,1.4-.49,2-.79.64-.33,1.38-.57,1.95-.94.58-.38.82-1.39,1.22-1.98.25-.36.42-.77.5-1.19.3-1.74-.19-1.68-.17-2.44.01-.91-.07-1.07-.49-1.84-.22-.4-.82-.54-1.08-.92-.5-.71-.28-.71-.78-.79l-.5-.09c-.85-.15-1.93-1.1-2.85-1.26-.14-.02-.29-.01-.44,0-.14-.06-.27-.12-.41-.14-.32-.05-.66.22-1.05.15-.28-.05-.38-.32-.74-.38-.11-.02-.22,0-.29-.01-1.23.56-1.55,1.6-1.75,2.77l-.18,1.06c-.06.35-.19.7-.26,1.09-.04.25,0,.47-.02.73.06,1.8-1.14,4.08.58,5.54.25.23,1.04.73.98,1.08-.1.6-1.13.83-1.63.74-.21-.04-.45-.15-.7-.19-.43-.07-.74.06-1.17-.02-.53-.09-1.06,0-1.59-.09-.39-.07-.73-.2-1.07-.37-.41.04-.84,0-1.23-.07-.46-.08-.9-.27-1.37-.34-.53-.09-1.17.02-1.75-.04-.54-.06-1.02.23-1.45.15-.78-.13-1.72-.84-1.57-1.69l.02-.14c.09-.31.79-.74,1.09-.83.11-.02.3-.02.51.01.36.06.81.18,1.02.21.6.1.66-.03,1.2-.16,2.18-.57,1.47-1.32,2.19-2.55.1-.17.17-.37.21-.58.06-.35.06-.76.11-1.08.15-.89,1.12-.98,1.29-1.97.1-.57-.05-1.18.11-2.1.08-.46-.04-.85.04-1.27.13-.74.47-1.45.6-2.23.16-.92.14-1.88.3-2.8.1-.6.35-1.18.45-1.79.08-.46-.02-.92.05-1.38.12-.71-.18-1.09-.33-1.7-.21-.91-.06-1.58-1.07-2.08-.6-.32-.81-.8-1.54-1.03-.52-.16-1.52-.52-1.39-1.26.13-.78,1.35-1.27,2.02-1.15.85.15,1.65.39,2.5.54.67.12,1.34.08,2.01.2.75.13,1.06.66,1.55.74.25.04.44-.03.67-.07.46-.1,1.1-.03,1.63.06l.39.07c.64.11,1.27.07,1.9.18s1.01.9,1.79,1.04c.32.05.62,0,.91.05.21.04.38.14.66.19.22,0,.47,0,.69.04.5.09.93.34,1.42.43.39.07.72-.13,1.07-.07.57.1,2.34,2.52,2.84,3.01,1.12,1.14,1.92.51,2.23,2.54.09.56.02,1.14-.07,1.67-.57,3.33-1.44,1.76-2.84,3.57-.33.45-2.03.34-2.2.5-.35.31-.94,1.01-1.01,1.43-.26,1.49,2.38,1.87,3.28,2.57.51.42.76,1.12,1.18,1.63.78.97.48,2.97.27,4.14-.05.28-.14.6-.19.88Zm-4.77-14.3c.2-1.14-.05-4.83-1.1-5.3-.34-.17-2.59-1.5-2.59-1.5-.6-.1-1.13-.45-1.7-.55-.36-.06-2.54,1.83-2.65,2.25l-.17.99c-.17.99-.59,1.94-.77,2.97-.08.46-.2,1.14-.13,1.62.04.41.24.73.28,1.14.03.44.1,1.52.67,1.61.5.09,1.18-.09,1.86.03,1.45.25,1.56-.39,1.92-.33.21.04.55.39.98.46.4.03,1.94-.43,2.21-.72.35-.34.46-.76.81-1.1.17-.15.27-.32.31-.53.06-.35,0-.69.07-1.05Z"/>
    <path class="cls-1" d="m283.64,96.69c-1.13.94-1.13.19-2.16.24-.16.01-.3.07-.47,0-.37-.15-.59-.55-1.05-.75-.4-.17-.86-.28-1.29-.46-.33-.14-.62-.37-.96-.51-.27-.11-.57-.12-.84-.23-.33-.14-.56-.43-.93-.58-.23-.1-.53-.14-.79-.25-.53-.22-.91-.81-1.85-1.19-.43-.18-.78,0-1.17-.17-.27-.11-.57-.04-.83-.15-.63-.26-1.3-.15-1.87-.38-.43-.18-.47-.27-.71-.64-.04-.09-.17-.15-.34-.22-.23-.1-.55-.19-.68-.24-.6-.25-.67-.74-1.03-.89-.2-.08-.49-.05-.71.02-.59-.17-1.19-.41-1.8-.55-.71-.17-.94.12-1.78-.23-.3-.12-.57-.31-.9-.45-.53-.22-1.09-.1-1.65-.33-.57-.23-1.04-.7-1.7-.97q-.45-.15-.48-.16c-.37-.15-.68-.44-1.04-.59-.37-.15-.75-.16-1.05-.28-.37-.15-.6-.44-.96-.59-.43-.18-.94-.27-1.37-.45-.43-.18-.61-.6-.89-.87-.44-.45-.25-1-.03-1.53l.07-.17c.82-2,2.96-.38,4.46-.81,1.38-.41,1.18.45,2.96-.76.65-.43,1.53-.77,2.05-1.38.3-.34.77-.46.94-.86.11-.27.4-.5.58-.74.39-.58.93-.83,1.27-1.38.29-.42.73-.55.97-.93.46-.74,2.4-1.19,3.26-2.63.53-.91,2.45-1.68,2.68-1.97.18-.24.39-.38.5-.65.55-1.14,1.49-1.53,1.97-2.69.19-.47.46-.74.67-1.16.47-.86.56-.31.98-.77.22-.26.42-.26.68-.42.97-.65,1.4-.28,2.46.08l.23.1c.6.25.61.88.77,1.45.39,1.41-.5,1.86.33,3.25.55.93.12,1.88.1,2.88,0,.11-.02.23-.07.36-.11.27-.25.52-.36.79-.25.6-.29,1.17-.49,1.75-.3.81.02,1.65-.14,2.51-.08.47-.16.48-.04.96.24.84-.34,1.03-.02,2.21-.17.79.12,1.41.03,2.19-.09.7-.69,1.58-.31,2.25.37.62-.35,2.27.06,3.34.32.83-.77,1.12.3,2.3.21.24.08.38.44.53,1.22.54,2.68,1.34,3.84,1.82.5.21.89.76.66,1.32-.1.23-.26.44-.49.62Zm-9.81-10.48c.32-.77-.56-1.86-1-2.4-.26-.3-1.1-.73-1.5-.89-.37-.15-.74-.19-1.11-.34-.83-.34-.95.04-1.52-.2-.33-.14-.61-.41-.94-.55-.3-.12-.88.14-1.37.02-1.63-.4-2.43,1.45-2.91,2.62-.59,1.43.54,1.24.95,2.42.12.28.22.4.42.49.13.06.31.09.51.17,1.2.49,1.23,1.36,1.76,1.58.5.21.69-.53,1.62-.15.63.26,1.21.65,1.88.93.2.08.43.18.65.11.21-.03,1.24-.65,1.3-.79.11-.27.64-.9.91-1.53.26-.63.22-1.19.34-1.49Zm.02-9.69c-.13-.44.3-.81.04-1.23-.29-.43-.18-.97-.75-1.21-.17-.07-.36-.07-.54-.11-.95.31-.8.72-1.37.95-.28.12-.66.27-.78.57l-.08.2c-.11.27-.92,1.37-1.18,1.54-.31.18-.63.4-.76.7-.38.93,1.07,1.57,1.73,1.84,1.03.43,2.64.39,3.19-.75.11-.27.25-.52.38-.82.25-.6.29-1.09.12-1.7Z"/>
    <path class="cls-1" d="m305.68,114.11c-.5-.35-.43-.88-.7-1.07-.18-.13-1.24,0-1.94-.5-.82-.58-1.19-1.69-2.18-2.4-.29-.21-.83-.15-1.03-.29-.23-.17-.33-.46-.54-.61-.23-.17-.56-.27-.8-.43-.35-.25-1.71-1.75-1.42-2.16.4-.56,1.59.12,2.18-.7.21-.29.7-1.23.66-1.61-.14-1.29.37-1.33.39-1.98.04-1.12-.84-.56-.32-2.53.29-1.03.26-1.98-.02-3.02-.06-.22-.18-.49-.2-.72-.01-.23.17-.67-.06-.84-.18-.13-.29-.34-.46-.46-.15-.1-.61.23-.73.28-.6.28-1.23.36-1.87.39-.56.04-2.19,1.58-2.5,2.02-.17.23-.25.48-.42.72-.31.44-.84.68-1.15,1.12-.12.18-.29,1.47-.39,1.85-.14.56.96,1.44.38,2.26-.56.79-2.86-.27-3.44-.69-.67-.48-1.1-1.18-1.81-1.68-.67-.48-1.11-1.23-1.78-1.71-.67-.48-1.67-.39-2.37-.89-.47-.33-1.06-1.06-.64-1.65.36-.5,2.41.21,2.83.43.48.25.69.09,1.17.04,1.43-.21,1.46.25,2.38-1.04.25-.35.57-.61.8-.93s.39-.74.64-1.09c.27-.38.7-.61.99-1.02.61-.85.86-1.95,1.21-2.45.25-.35.64-.65.89-1,.52-.73.67-1.56,1.36-2.52.36-.5.5-1.14.86-1.64.38-.53.97-.86,1.36-1.42.5-.7.92-1.47,1.25-2.25.73-1.65-.27-2.67-1.53-3.56-.59-.42-.59-1.09-.2-1.64.92-1.29,1.52-.46,2.52-.06.11.03.22.07.33.15.38.27.52.95,1.08,1.34.47.33,1.22.34,1.66.65.26.19.36.61.65.82.32.23.78.33,1.13.58.38.27.63.67,1.01.94.79.56,1.77.73,2.57,1.3,1,.71,1.55,1.86,2.05,2.21.47.33.86.04,1.5.5.62.44,1.42.3,2.06.76.88.63,1.41,1.8,2.26,2.41.29.21.56-.04.85.17.26.19.34.51.58.68l1.09.82c.5.36,1.09.51,1.53.83.56.4.88,1.38.48,1.93-.1.15-.78.29-.99.4-.48.23-1.59.37-2.06.04-.35-.25-.64-.59-.99-.84-.53-.38-.58.51-1.57-.15-.87-.58-2.15.41-2.88-.11-.15-.1-.24-.22-.39-.32-.53-.38-.89.25-1.3-.04-.29-.21,0-.88.12-1.1.63-1.19.38-2.08-.03-3.25-.16-.46-.96-2.01-1.31-2.26-.18-.12-1.92-.22-2.66-.48-2.42-.88-2.49,1.14-4.27,1.9-.31.44-.48.98-.79,1.42-.29.41-.78.73-1.07,1.14-.29.41-.65,2.15-.15,2.5.29.21.86.35,1.19.5,2.55,1.07,2.08-.25,3.96-.23.49,0,1.51-.25,1.89.02.18.12.26.45.31.62.3.88-.4,1.8-.59,2.63-.01.08-.05.14-.1.2l-.17.23c-.15.21-.21.42-.28.64-.45,1.75-.67.94-.52,3.03.07,1.2,1.18,1.63.35,3.48-.32.7-.35.81-.34,1.53.03,1.26-.7.92.03,2.81.17.38-.17.98-.17,1.42-.02.52.46,1.03.43,1.5-.07,1.1.58,1.17.8,2.03.14.67,1.03,1.22.55,1.9-.31.44-.79.54-1.23.23Z"/>
    <path class="cls-1" d="m324.67,132.82c-.65.35-1.39.25-2.08.5-.1-.06-.2-.16-.27-.24-.78-.85-.25-2.02-.93-2.77-.24-.27-.65-.33-.87-.57-.17-.19-.18-.47-.33-.63-.41-.45-1-.5-1.41-.95-.54-.58-.12-.87-.53-1.32-.29-.32-.69-.54-.98-.86-.32-.34-.47-.84-.79-1.18-.17-.19-.73-.11-1-.4-.29-.32-.5-.71-.8-1.03-.49-.53-1.14-.71-1.58-1.19-.54-.58-.83-1.33-1.14-2.04-.07-.18-.26-.39-.46-.61l-.44-.48c-.29-.32-.43-.73-.7-1.02-.56-.61-1.52-.22-2.18-.93-.46-.5-.79-1.23-1.22-1.76-.26-.34-.58-1.43-.23-1.74.85-.78,3.09,1.56,3.93,1.72.4.07,1.07-.49,1.4-.65.29-.12.78-.27.99-.47.29-.27.44-.64.73-.91.48-.44,1.24-.41,2.3-1.38l3.71-3.41c.53-.49.74-1.17,1.21-1.6.66-.61,1.54-.93,2.21-1.54.61-.56.84-1.11,1.15-1.84.1-1.17,1.52-1,.69-3.56-.02-.08-.04-.15-.09-.21-.22-.24-.68-.21-.92-.47-.51-.56-.39-1.49.14-1.98.96-.88,2.68-.06,3.43.76.51.56.65,1.4,1.17,1.96.44.48,1.15.61,1.61,1.11.29.32.43.73.7,1.02.32.34.74.54,1.06.89.19.21.28,1.69.82,2.28.34.37.82.57,1.18.97.24.27.41.6.63.84.29.32.67.51.96.83.56.56,1.44.83,1.95,1.38.68.74.81,1.84,1.52,2.61.58.64,1.51.91,2.07,1.52.39.42.72,1.58.75,2.15.03.51-.4.95-.74,1.27-.42.39-.92.7-1.32,1.06-.45.41-.88.85-1.3,1.24-.66.61-.6,1.43-1.29,2.06-.26.24-1.1.82-1.49.83-.18.02-.3-.11-.4-.22l-.15-.16c-.41-.45,0-1.27.13-1.83.13-.66.92-1.13.87-1.82-.04-.79-.22-1.36.17-2.11.28-.55.11-1.27.03-1.83-.14-1,.56-1.2-.29-2.13l-1.17-1.27c-.27-.29-.62-.51-.88-.8-.39-.42-.54-1.02-.93-1.44-.07-.08-.15-.11-.25-.16-1.02-.48-1.85-1.38-3.06-1.15-.49.11-1.1.62-1.6,1.08l-.53.49c-.53.44-1.25.51-1.72.95-.19.17-.76,1.62-1.32,2.29-.32.39-.25.96.1,1.33.24.27.72.46,1.04.61,1.05.45,1.51.42,2.68,1.11.45.27,1.34-.25,1.65-.54.37-.34,2.45-1.37,2.84-1,.24,1,.11,1.61-.69,2.34-.64.58-1.41.7-2.04,1.19-.58.43-1.26.86-1.79,1.35-.45.41-1.23,1.96-1.95,2.62l-.19.17c-.42.39-.77.66-1.25.12-.1-.11-.19-.21-.27-.34-.12-.18-.16-.49-.1-.69.56-2.32-.3-1.87-.22-3.86-.17-.19-.37-.35-.54-.53-.07-.08-.14-.21-.22-.29-.26-.39-.19-.9-.56-1.3l-.27-.24c-.59-.59-3.5,1.3-3.97,1.74-.69.63-.75,1.52-1.37,2.18-.72.76-1.89,3-1.88,4.07,0,.43,1,1.57,1.32,1.92.24.27.62.36.84.6.19.21.29.47.48.68.49.53,1.2.46,1.74.99,1.06.3,1.08.33,1.89,1.05.02.03,2,.16,2.33.25.4.12,2.44-.58,3.26-.6.79,0,1.96-.53,2.11-.52.2,0,.4.22.52.35.95,1.03-.71,2.8-1.27,3.56-.06.1-.13.17-.24.27-1.7,1.56-2.3,1.33-4.12,2.27Z"/>
    <path class="cls-1" d="m341.07,159.12c-1.16-.91-1.48.12-2.59-1.36-.49-.63-1.7-1.47-2.1-2.15-.15-.25-.2-1.34-.19-1.68.01-.26-.25-1.35-.2-1.47.25-1.07.16-1.51,1.06-2.25.4-.32.66-.8,1.09-1.06.43-.25.92-.29,1.35-.54.96-.57,1.32-1.52,2.31-2.11.22-.13.48-.24.7-.37.78-.46.57-1.3,1.48-2.17.88-.85-1.32-3.23.33-4.2.56-.33,1.94,1.24,2.2,1.67.24.4.3.87.52,1.24s1.83.63,2.33.55c.38-.06.49.05.81.11.33.06,1.64-.55,1.95-.73.71-.42,1.74-1.44,1.73-2.31-.02-.53.22-.97.25-1.49.01-.26-.14-.46-.16-.7-.06-.38-.07-.75-.04-1.14.01-.55-.45-.99-.48-1.68-.03-.48-.11-.98-.37-1.41-.53-.9-1.28-.83-2.16-.98-1.03-.19-1.08-.49-2.06.04-.42.21-.95.31-1.35.54-.62.36-.67,1.35-1.88,2.06-.22.13-.43.13-.64.25-.75.44-1.12,1.5-1.59,1.77-.34.2-.78-.33-1.9.32-.34.2-.71.21-1.02.39-.31.18-.62.44-.93.63-.56.33-1.21.29-1.77.62-.78.46-1.35,1.25-2.16,1.73-.4.24-.83.36-1.2.58-1.09.64-.95,1.02-1.3,1.98-.34.91.68,2.15-.25,2.7-.78.46-1.43-.58-1.85-1.29l-.2-.34c-.4-.68-.42-1.5-.81-2.16-.51-.87-1.47-1.64-2.11-2.73-.29-.5-.43-1.08-.72-1.58-.36-.62-.93-.58-1.07-.83-.33-.56-.17-2.57.39-2.9.22-.13.74-.1.86.12.13.22.11.48.24.69.62,1.06,1.78.83,2.74,1.32.77.38,1,.29,1.59-.06l.99-.58c.43-.26.83-.57,1.27-.83,1.33-.78,3.01-1.35,4.15-2.02.28-.16.51-.34.76-.49.12-.07.25-.15.39-.19l.12-.07c.62-.36,1.45-1.52,2.16-1.94.75-.44,1.6-.61,2.35-1.05.99-.58,1.72-1.55,2.38-2.48.22-.34.17-.64.35-.96.23-.39.42-.71.25-1.15-.16-.49-.29-1.13-.54-1.56-.13-.22-.33-.35-.44-.54-.29-.5.4-1.45.84-1.7.53-.31.9.18,1.17.65l.27.47c.31.53.87.91,1.23,1.53.11.19.19.39.3.58.2.34.57.62.77.96.18.31.09.78.32,1.19.55.93,1.22,1.79,1.78,2.75.24.4.22.87.46,1.28.15.25.56.38.7.63.13.22.18.52.33.77.24.4.62.64.84,1.01.55.93.65,2.17,1.19,3.1.31.53,1,.79,1.46,1.56.33.56.54,1.35.25,1.98-.91,1.87-.2,2.08.19,3.81.12.56-.11,1.02-.5,1.42-.75.78-.54,1.57-1.69,2.24-.84.49-1.85,1.04-2.87.94-.57-.04-.65-.33-1.03-.69-.83-.77-3.45-.98-4.6-1.51-.35-.17-.65-.96-1.11-.68-.56.33.06,1.17-.19,1.74-.16.3-.8,2.47-.8,2.47-.47.48-.65.88-.96,1.49-.6,1.19-1.45,1.23-2.24,2.94-.17.35-.57.46-.79.79-.26.41-.07,1.8.18,2.23.13.22,1.54.85,1.74,1.19.22.37-.3.97-.58,1.14-.62.36-1.13.42-1.7-.05Z"/>
    <path class="cls-1" d="m371.62,178.29c-.42-.01-.73-.71-1.16-.86-1.21-.43-1.97-1.35-3.1-1.89-2.72-1.33-3.86.27-5.29-.28-.22-.08-.35-.15-.59-.18-.4-.06-.38-.22-.67-.31-.33-.08-.68,0-1.02,0-.8,0-.46-.57-1.95-.15-.27.09-1.35-.08-1.76-.06-1.52.09-1.39-.52-3.13.06-.34.11-.65.22-.98.37-.5.21-.8.57-1.24.83-.6.35-1.27.62-1.85,1.04-.27.21-.38.69-.62.97-1.05,1.3-.37,1.95-.61,2.37-.07.14-.23.23-.36.27-.55.18-.96-.36-1.12-.84-.15-.44.06-.97-.1-1.45-.14-.41-.73-.71-.98-1.46-.07-.21.41-1.28-.04-2.61-.7-2.08-2.31-2.83-2.64-3.82-.42-1.26-.12-2.39,1.18-2.82,1.02-.34,1.47-.15,2.38.19.65.24.99.92,1.58,1.1.39.14.72.44,1.1.47,1.21.09,1.07.48,2.5,0,1.54-.51,1.83-1.22,3.14-1.85,1.01-.49,1.44-1.81,2.41-2.44.68-.46,2.34-2.87,3.31-3.72.55-.52,1.24-1.52,1.46-2.23.12-.42.11-.68.03-.92-.07-.2-.17-.4-.27-.71-.14-.41-.1-.88-.17-1.31-.07-.32-.07-.43-.03-.56.03-.12.11-.23.27-.43.76-1.01.56-1.74,2.02-2.23.72-.24,2.21-.21,2.48.61.14.41.06.85.18,1.23.08.24.28.4.38.67.14.41.11.91.26,1.35.4,1.19,1.16,2.23,1.56,3.42.49,1.47,0,3.76.52,5.29.09.27.05.59.14.86.11.34.39.59.5.93.07.2.1.42.18.66.24.72.96,1.05,1.2,1.76.18.55.67.99.87,1.57.15.44.22.88.37,1.32.29.85-.15,1.26.05,1.84.11.34.36.52.48.86.16.48-.11.8-.15,1.26-.01.42.08.81.14,1.21.06.28-.26.47-.47.54-.14.05-.25.05-.36.05Zm-5.3-6.65c.22-.26.37-.69.5-1,.15-.35-.05-.71.07-1.05.11-.34.24-.65.11-1.02-.17-.51-.74-.85-.92-1.4-.07-.21-.01-.38-.08-.58-.49-1.47-1.55-1.8-2.92-1.34-.92.31-1.9.79-2.38,1.63-.53.9-1.14,1.94-2.04,2.54-.65.44-1.64,1.34-1.78,2.15-.03.24-.27,1.12-.22,1.29.01.03.07.09.08.12.33.19.58.49.97.51.71.07,1.35-.38,2.15-.26,1.32.2,3.02.62,4.31.19,1.81-.6,1.14-.68,2.14-1.78Z"/>
  </g>
  <g>
    <path class="cls-1" d="m175.18,365.79c-.26.42-.73.59-1.05.97-.08,0-.17-.03-.24-.05-.73-.24-.8-1.1-1.44-1.31-.23-.08-.49.02-.69-.05-.16-.05-.26-.21-.4-.26-.39-.13-.74.03-1.13-.09-.5-.17-.35-.47-.74-.6-.27-.09-.58-.09-.85-.18-.3-.1-.55-.33-.84-.43-.16-.05-.46.18-.71.09-.27-.09-.52-.25-.8-.34-.46-.15-.9-.04-1.31-.18-.5-.17-.92-.5-1.32-.81-.1-.08-.28-.14-.46-.2l-.41-.14c-.27-.09-.49-.29-.74-.37-.52-.17-.96.37-1.57.17-.43-.14-.86-.46-1.28-.62-.27-.11-.8-.64-.7-.94.24-.73,2.31-.1,2.85-.28.26-.09.46-.63.6-.84.13-.16.36-.41.42-.59.08-.25.04-.52.13-.77.14-.41.59-.64.89-1.55l1.05-3.19c.15-.46.05-.92.19-1.33.19-.57.6-1.04.78-1.61.17-.52.13-.92.07-1.44-.32-.71.56-1.08-.76-2.3-.04-.04-.08-.08-.12-.09-.21-.07-.46.1-.69.03-.48-.16-.72-.74-.57-1.2.27-.82,1.54-.91,2.24-.68.48.16.84.6,1.32.76.41.13.87-.02,1.3.12.27.09.49.29.74.37.3.1.61.07.9.17.18.06.72.89,1.22,1.06.32.11.66.07,1,.18.23.08.43.22.64.29.27.09.55.08.83.17.51.14,1.11.01,1.59.17.64.21,1.07.81,1.73,1.03.55.18,1.18.03,1.7.21.36.12.94.69,1.13,1.01.18.29.08.68-.02.98-.12.37-.31.71-.42,1.05-.13.39-.23.78-.35,1.15-.19.57.12,1.02-.08,1.62-.07.23-.38.84-.6.97-.1.07-.21.03-.3,0l-.14-.04c-.39-.13-.41-.74-.52-1.11-.14-.42.16-.96-.09-1.34-.28-.45-.57-.72-.59-1.28-.02-.41-.35-.77-.58-1.08-.4-.54-.06-.88-.86-1.14l-1.09-.36c-.25-.08-.52-.1-.77-.18-.36-.12-.65-.42-1.01-.54-.07-.02-.12-.01-.2-.01-.75.06-1.53-.2-2.15.33-.25.22-.44.71-.58,1.15l-.15.46c-.17.43-.56.7-.69,1.11-.05.16.09,1.19-.02,1.76-.06.33.17.64.49.74.23.08.57.04.8.01.76-.08,1.02-.25,1.92-.23.35.01.7-.58.79-.85.1-.32.98-1.6,1.33-1.51.46.51.59.9.36,1.58-.18.55-.59.87-.8,1.35-.2.44-.45.91-.6,1.37-.13.39-.08,1.54-.28,2.16l-.05.16c-.12.36-.23.63-.69.48-.09-.03-.18-.06-.27-.11-.13-.07-.25-.23-.28-.37-.43-1.53-.79-.99-1.38-2.17-.16-.05-.33-.08-.49-.13-.07-.02-.15-.08-.22-.1-.28-.14-.4-.46-.75-.57l-.24-.05c-.53-.15-1.61,1.9-1.75,2.31-.19.59.06,1.13-.08,1.72-.17.68-.12,2.36.23,2.98.15.25,1.09.59,1.39.69.23.08.48,0,.68.07.18.06.32.18.5.24.46.15.85-.12,1.34.01.71-.17.74-.16,1.44,0,.02,0,1.22-.56,1.44-.61.27-.06,1.23-1.14,1.7-1.41.46-.25.97-.94,1.06-.99.12-.06.3,0,.42.04.89.29.5,1.86.42,2.49,0,.08-.02.14-.05.24-.48,1.46-.91,1.52-1.66,2.66Z"/>
    <path class="cls-1" d="m193.69,364.67c-.26.68-.13.9-.61,1.59-.23.32-.38.71-.58,1.06-.27.51-.7.59-1.06,1.04-.48.57-2.07,1.18-2.79,1.26-.4.04-2.19-.28-2.64-.37-1.6-.31-1.47-1.1-1.78-1.28-.31-.18-.68-.38-1.04-.45-1.46-.29-2.73.81-3.22.71-.35-.07-.4-.47-.37-.76-.17-.4-.24-.88-.16-1.33.1-.52.59-.5.7-1.06.08-.4-.01-.81.07-1.23.06-.28.16-.58.27-.85.26-.71.52-2.78,1.65-2.56.8.16.76,1.47.87,2.05s.38,1.05.41,1.67c.05,1.62.84,1.22,1.42,2.26.24.41.39.27.72.43.49.24.85.88,1.42.99.21.04.4-.02.61-.12.35-.17,1.13.22,1.86-.15.3-.16.79-.16,1.02-.44.54-.65.85-.61,1.04-1.56.29-1.46-.34-1.36-1.03-2.35-.34-.51-1.07-.77-1.61-1-1.04-.45-1.84-1.32-2.9-1.65-.25-.07-.61-.37-.83-.41-.24-.05-.52.04-.76,0-.38-.07-.79-.33-1.19-.43-.25-.07-.44-.13-.48-.44-.16-1.06-.43-1.55-.78-2.5-.13-.34.04-.8-.14-1.03-.26-.32-.23-.56-.17-.87l.06-.33c.12-.59.3-.53.66-.87.6-.59.23-1.45,1.78-1.97,1-.34,1.37-1,2.5-.78.38.07,1.94.19,2.29.16.22,0,.45-.03.68.01,1.15.23.39,1.5,1.92,1.8.47.09,1.12.02,1.6-.05.58-.08.52-.41,1.27-.26.31.06.36,1.29.3,1.58-.1.5-.44,1.01-.59,1.5-.39,1.24-.24,2.2-1.32,3.11q-.21.18-.49.12c-.4-.08-.39-.15-.35-.58.21-1.92-.18-3.21-1.85-4.28-.39-.25-.39-.62-.84-.7-.42-.08-.81-.35-1.23-.44-.64-.12-2.63.22-2.93.84-.09.23-.19.45-.23.69-.21,1.08.57,2.19,1.66,2.4.16.03.23-.03.3-.02.4.08.41.64.69.87.25.22,1.12.39,1.67.82.34.26.7.55,1.12.64.31.06.63.03.94.09.9.18.64.83,1.08,1.21.36.29.76.59,1.01.98.2.33.5,1.96.57,2.44,0,.1.01.2,0,.29-.03.17-.14.34-.2.5Z"/>
    <path class="cls-1" d="m214.01,356.66c-.06.77-.38,1.54-.44,2.33-.02.22.04.44.02.65-.05.62-.34,1.01-.99.96-.22-.02-.34-.29-.4-.46-.27-.6-.52-.38-.65-1.28-.05-.27-.28-.43-.36-.7-.19-.62-.58-.62-.7-1.28-.03-.2-.71-.85-.87-.86-.33-.02-.84.35-1.28.39-.72.04-.87.63-.91,1.23-.01.17,0,.36-.02.53-.06.86.11,1.72.05,2.58-.04.53-.22,1.02-.26,1.57-.05.65-.12,1.31-.17,1.96-.06.79.22,1.53.17,2.3-.04.57-.28,1.11-.31,1.64-.04.57.55,1.99,1.22,2.04.55.04,1.12-.21,1.67-.16.33.02.85.86.82,1.22-.04.53-.84.88-1.29.84-.57-.04-1.11-.3-1.71-.34-.41-.03-.8.11-1.21.08-.38-.03-.9-.14-1.28-.24-.35-.08-.64-.41-.98-.43-.77-.06-1.15.59-1.92.55-.34,0-.68.05-1.01.02-.65-.05-2.22-.89-2.16-1.65.03-.38.49-.42.8-.4.53.04,1.05-.16,1.62-.12l.36.03c.14.01.19,0,.32-.1.13-.09.3-.1.42-.18.35-.21.46-.62.49-1.02.02-.29.02-.55.04-.79.02-.29.11-.57.14-.86.02-.24-.01-.48,0-.72.05-.65.43-1.2.47-1.75.01-.14-.07-.29-.06-.46.02-.26.18-.49.2-.75.03-.38-.16-.73-.13-1.12.03-.38.15-.76.18-1.17.05-.72-.11-1.48-.15-2.2-.03-.29.04-1.2-.09-1.4-.39-.63-.82-1.24-1.61-1.3-1.48-.11-2.7.98-3.09,2.37-.1.31-.15.78-.41,1-.33.26-.51.68-1.03.64-.48-.04-.59-.53-.56-.93.04-.55.15-1.07.19-1.62.02-.24.18-.49.2-.78.04-.5-.04-1.01,0-1.54.07-.89.57-1.83,1.6-1.76.24.02.4.15.63.22.48.08.98.12,1.48.16l.24.02c.89.07,1.76.01,2.64.08.38.03.76.11,1.15.13.31.02.6-.05.94-.03h.14c.5.05,1.11.26,1.4.28.67.05,1.51-.3,2.4-.23.57.04,1.13.28,1.71.32.36.03.74-.19,1.14-.16.79.06,1.48.81,1.42,1.6-.03.36-.19.66-.22,1.07Z"/>
    <path class="cls-1" d="m235.53,359.24c-.4.64-.62,1.31-1.1,1.89-.24.26-.33.61-.52.89-.32.49-.92.71-1.31,1.16-.35.39-.92.5-1.16.95-.37.71-1.73,1.56-1.85,2.32-.07.51-.37,1.17-.33,1.65.03.33.54.82.89.78.1,0,.17-.04.26-.07.89-.28,1.83-.29,2.75-.45.38-.06.47-.33.77-.51,1.3-.77.47-2.14,1.36-2.23.31-.03.55.21.58.52.04.38-.26.77-.22,1.27.06.6.54.84.57,1.18.02.21-.1.42-.18.62-.11.32-.03.65-.15.98-.26.82-1.62.71-2.48,1.08-.12.06-.26.1-.4.11-.22.02-.39-.08-.57-.16-.3-.12-.76-.14-1.08-.21-.32-.07-.63-.06-.97-.03-.36.03-.74.09-1.1.13-.43.04-.88-.08-1.31-.04-.5.05-.97.41-1.55.46-.38.04-.48-.24-.51-.58,0-.1-.02-.21,0-.31,0-.22.02-.27.18-.43.5-.55.85-1.43,1.25-2.07.56-.92.61-1.75,1.71-2.02.54-.12.43-.31.53-.77.12-.54.8-1.23.92-1.73.14-.57.61-.9.79-1.62.15-.67.3-1.19.28-1.88-.01-.65.51-.99.39-2.25-.03-.33-.12-.71-.36-.98-.3-.36-.35-.67-.6-1.03-.61-.86-1.01-.96-2.06-.87-1.27.12-1.84,1.21-2.83,1.88-.23.14-.33.37-.3.66.1,1.08,1.29,1.4,1.38,2.35.07.76-.48,2.05-1.36,2.13-.88.08-1.39-.88-1.81-1.49-.34-.5-.43-.97-.49-1.55-.07-.74,0-1.95.61-2.47.31-.27.52-.58.89-.81.57-.37.53-.53.87-1.02.38-.54,1.32-.61,1.6-.9.42-.43.58-.44,1.23-.5.53-.05.73.03,1.2.17.35.11.73.08,1.08.21.38.16.77.29,1.18.25.14-.01.28-.07.43-.09.6-.06,1.47,1.23,1.92,1.63.5.43,1.1,2.14,1.16,2.81.03.33.02.7-.17.98Z"/>
    <path class="cls-1" d="m250.73,360.96l.02.12c.07.33.18.65.25,1,.08.4-.05.62-.28.94-.37.49-.13.69-.23,1.17-.08.36-.19.65-.21,1.02-.06.79-.51,1.23-.93,1.85-.13.22-.11.44-.24.61-.19.26-.31.55-.47.83-.07.14-.32.21-.47.24-.31.06-1,.03-1.08-.37-.05-.26.28-.45.42-.6.18-.18.15-1.35.18-1.67.03-.45.25-.83.28-1.3.04-.77-.08-1.38-.23-2.11l-.03-.17c-.17-.85-.03-1.73-.19-2.56-.07-.35-.3-.62-.37-.98-.08-.4.12-.76.04-1.16-.02-.09-.9-1.95-.94-1.99-.75-.83-.65-.55-1-1.56-.19-.57-.71-.86-1.22-1.08-.29-.11-1.26-.66-1.47-.64-.21.16-.79.72-.81.97-.03.71-.03,1.33,0,2.06.03.63-.11.8.03,1.63l.13.66c.1.49.23,1.05.49,1.49.15.26.26.56.32.84.05.24.03.41-.02.64-.04.16,0,.39.06.65.07.33.16.7.21.94.07.35,0,.69.06,1.04.05.26.24.56.32.84.21.67.32,1.38.58,2.04.19.45.53.7.68,1.21.09.33.24.61.51.83.03.04.17.11.18.18,0,.02-.01.05-.04.06-.14.05-.28.08-.44.11-.31.06-1.16-.28-1.43-.4-1.13-.53-.79-.77-1.44-1.35-.3-.26-.44-.62-.76-.85-.34-.25-.89-1.29-.98-1.71-.07-.33,0-.69-.06-1.02-.03-.14-.09-.23-.19-.33-.46-.45-.66-1.12-.79-1.73-.17-.87-.2-2.23-.19-3.14,0-1.18.33-1.88.41-3.12.03-.81.56-.77.73-1.1.48-.93.97-.9,1.46-1.64.08-.11.21-.19.33-.21.26-.05.41.11.55.08.21-.04.18-.82,1.12-1.01.4-.08.78.11,1.16.18.58.1,1.04.53,1.45.91.63.58,1.09.32,1.72,1.15.46.62.62,1.27,1.04,1.92.21.3.37.64.44.99.04.21.06.43.1.64.15.75.8,1.19.95,1.94.13.66.15,1.34.25,2Z"/>
    <path class="cls-1" d="m264.27,352.3c-.26.71-.34,1.41-.69,2.07-.18.31-.2.66-.33.98-.21.54-.75.89-1.05,1.4-.26.46-.8.67-.94,1.17-.21.77-1.38,1.88-1.34,2.65.04.52-.12,1.22.02,1.68.1.32.69.69,1.03.58.09-.03.15-.07.24-.12.81-.45,1.73-.66,2.6-1.01.36-.14.4-.42.65-.65,1.12-1.02.02-2.19.87-2.46.3-.09.58.1.67.39.11.37-.1.81.05,1.29.18.57.7.71.8,1.03.06.21-.02.43-.05.64-.04.34.1.65.05.99-.09.86-1.44,1.02-2.2,1.56-.1.08-.23.15-.37.19-.21.06-.4,0-.59-.04-.32-.05-.77.01-1.1.01-.33,0-.63.07-.95.17-.34.11-.7.24-1.05.35-.41.13-.88.09-1.29.22-.48.15-.87.6-1.42.77-.37.11-.52-.14-.62-.46-.03-.09-.06-.21-.07-.3-.04-.21-.03-.27.08-.45.38-.64.54-1.58.8-2.28.36-1.02.24-1.83,1.26-2.33.51-.23.36-.39.36-.87,0-.55.53-1.37.55-1.88.02-.58.42-1.01.44-1.74.01-.68.05-1.22-.11-1.9-.15-.63.3-1.07-.08-2.29-.1-.32-.26-.67-.55-.88-.37-.29-.48-.58-.8-.88-.77-.71-1.18-.74-2.19-.43-1.21.38-1.55,1.56-2.39,2.42-.19.19-.24.43-.16.7.32,1.03,1.55,1.1,1.83,2.02.23.73-.05,2.1-.9,2.36-.85.26-1.54-.58-2.07-1.09-.43-.42-.62-.86-.79-1.41-.22-.71-.39-1.91.09-2.54.25-.33.39-.67.7-.97.48-.48.41-.63.64-1.18.26-.61,1.16-.86,1.38-1.21.32-.5.48-.55,1.1-.74.5-.16.72-.12,1.21-.07.36.04.73-.08,1.1-.01.4.08.82.12,1.21,0,.14-.04.26-.13.4-.17.57-.18,1.69.91,2.21,1.2.58.32,1.51,1.87,1.71,2.51.1.32.16.68.03.99Z"/>
    <path class="cls-1" d="m280.27,351.87c.46,2-.59,1.92-.35,2.97.34,1.47-1.16,3.39-2.23,4.26-.39.32.02.49-.97.91-.68.29-1.83.6-2.59.61-.46.02-1.72.37-2.05.09-.33-.28-.81-.44-1.08-.76-.55-.68-1.01-.72-1.41-1.64-.3-.71-.47-2.28.39-2.64.35-.15.98-.39,1.3-.14.31.23.92.5,1.07.85.3.71-.06,1.64.25,2.35.12.29.67.84,1.04.68.15-.07.24-.23.39-.3.31-.13.7.41,1.23.18.15-.07.58-.66.69-.84.25-.45.49-.68.89-.98.89-1.45.28-1.37.53-2.97.04-.22.05-.44-.05-.66-.13-.31-.39-.54-.53-.87-.18-.42-.15-.9-.33-1.32-.29-.68-.88-.54-1.21-1.07-.31-.49-1.78-1.25-2.34-1.01-.2.08-.33.27-.5.35-.35.15-.56-.15-.85-.03-.13.06-.52.67-.64.82-.89,1.08-.32,1.62-1.16,2.79-.08.11-.18.26-.31.31-.29.12-.86-.05-.99-.36-.28-.66.12-.99-.06-1.54-.17-.53-.27-.93-.32-1.48-.03-.32-.07-.65-.2-.96-.1-.24-.29-.45-.4-.69-.23-.53-.2-1.19-.45-1.79-.12-.29-.31-.54-.43-.83-.31-.73.15-1.86.85-2.16.13-.06.29-.12.45-.11.27.15.55.18.83.06.31-.13.52-.43.81-.55.35-.15.93.23,1.51-.02.24-.1.37-.36.61-.47.2-.08.41-.07.59-.15.64-.27.69-1.13,1.31-1.39.49-.21.96.04,1.15.5.42.99-.25,1.44-.62,2.22-.43.94-1.39,1.09-2.16,1.68-.11.1-.27.17-.4.22-.49.21-1.04.13-1.5.33-.13.06-1.11.76-1.17.86-.11.23-.09.53-.16.8-.1.31-.03.85.09,1.13.33.77,1.04.73,1.7.45.82-.35,1.03-1.07,1.36-1.21.91-.39.82.15,1.51-.07.3-.1.83-.33,1.14-.33.24,0,1.24.39,1.52.5.37.13.78.11,1.16.26.57.23.47.3.82.59.27.2.83.41,1.14.53.5.2.78.66.97,1.12.13.31.06.63.14.93Z"/>
  </g>
  <g>
    <g>
      <path class="cls-1" d="m304.35,328.67c32.57-20.6,49.94-58.97,56.04-95.95.75-5.46,1.5-10.95.88-16.47,0,0,2,.08,2,.08-1.23,5.46-1.25,10.98-1.88,16.51-1.01,9.6-2.48,19.33-5.04,28.67-4.74,17.5-13.36,34.04-25.21,47.8-7.37,8.42-15.88,16.02-25.9,21.15,0,0-.89-1.79-.89-1.79h0Z"/>
      <path class="cls-1" d="m354.77,236.65c-4.51-6.52-5.41-14.96-3.38-22.5,1.51-5.83,4.78-11.02,8.4-15.78,0,0-.14.22-.14.22.93-2.25,3.27-3.83,4.95-1.24,1.01,1.97,2.3,4.38,3.45,6.35,5.85,9.92,9.59,24.9-1.12,33.05,0,0-1.38-1.45-1.38-1.45,4.81-5.68,5.24-12.91,3.4-19.87-1.25-5.37-3.76-10.56-5.91-15.72-.17-.43-.33-1.1-.62-1.44-.01,0-.02-.03-.01-.03.02.04.06,0,.09.01.18-.05-.11,0-.33.28-.32.3-.54.78-.79,1.15-3.67,4.39-6.83,9.37-8.38,14.9-1.95,6.93-1.07,15,3.32,20.8,0,0-1.55,1.26-1.55,1.26h0Z"/>
      <path class="cls-1" d="m357.12,265.93c3.5-7.72,11.87-12.99,20.33-12.85,1.36.06,2.81.01,4.18.25.92.17,1.81.28,2.55,1,1.33,1.76-1.63,3.1-2.26,4.55-2.64,4.26-4.5,9.06-7.95,12.82-3.37,4.14-10.06,6.2-14.7,2.97,0,0,.81-1.83.81-1.83,7.36,2.22,11.16-.12,15.65-6.15,2.62-3.57,4.57-7.95,7.82-11.12.72-1.51-3.52-1.54-4.45-1.53-6.43-.18-11.85,3.84-16.05,8.31-1.42,1.48-2.82,3.06-4.19,4.57l-1.73-1.01h0Z"/>
      <path class="cls-1" d="m340.63,299.54c4.53-8.21,13.95-14.15,23.48-12.43,1.92.29,7.14.98,6.83,4.22-1.47,4.67-5.08,8.42-8.86,11.34-4.42,3.28-10.16,4.74-15.63,3.85-1.83-.28-3.6-.8-5.35-1.4l.78-1.84c10.08,5.28,21.24.36,26.3-9.34.45-.95.98-2,1.02-2.95-1.1-1.31-3.48-1.34-5.31-1.48-8.73-.75-16.27,4.6-21.55,11.1,0,0-1.7-1.05-1.7-1.05h0Z"/>
      <path class="cls-1" d="m352.3,246.56c-4.12-5.8-10.83-13.21-18.43-13.37-1.59.07-3.27.22-4.73.81-.26.11-.44.32-.38.32.57.88,1.86,1.35,2.78,1.98.35.17.7.8.82,1.16,1.73,5.63,2.91,14.17,10.16,14.41,2.29.1,4.76-.51,7.27-1.18l.81,1.83c-1.47.92-3.13,1.64-4.84,2.12-4.22,1.18-8.86,0-11.33-3.8-2.85-4.15-2.62-8.82-3.63-13.34-.79-.8-2.18-1.42-2.85-2.51-1.21-2.56,4.45-2.43,5.9-2.56,1.01-.02,2.09.14,3.07.38.9.27,2.01.66,2.86,1.09,5.5,2.72,9.9,7.03,14.11,11.44,0,0-1.59,1.22-1.59,1.22h0Z"/>
      <path class="cls-1" d="m339.65,274.21c-.15-6.77-2.53-13.96-10.08-15.17-1.77-.38-3.8-1.16-5.54-.67-.09.08-.05.08-.06.17.19,1.96,1.54,4,2.32,5.85,2.62,5.09,5.95,13.46,12.51,12.61,0,0,.57,1.92.57,1.92-10.01,3.48-15.77-11.06-17.21-18.72-.53-3.25,1.41-4.04,4.27-3.09,4.47,1.54,9.68,2.46,12.71,6.55,2.16,3.11,2.92,6.98,2.5,10.73,0,0-1.99-.18-1.99-.18h0Z"/>
      <path class="cls-1" d="m326.72,302.46c.85-4.33-.02-9.03-2.26-12.86-1.06-1.96-2.29-4.1-4.29-5.39-.37-.3-1.04-.75-1.46-.98-.73-.39-2.08-1.42-2.89-1.38-.37.04-.37.02-.46.35-.2.7.3,1.83.35,3.31,0,5.33-1.63,11.64,2.71,15.54,1.49,1.28,3.27,2.25,5.06,4.1l-.63,1.9c-5.7.5-10.62-5.06-10.9-10.56-.41-4.25,1.24-7.85,1.51-11.79,0-1.07-.21-1.92.2-3.09.66-1.96,3.05-1.52,4.27-.52,0,0,1.52,1.05,1.52,1.05,1.01.65,1.92,1.59,2.9,2.27,1.39,1.26,2.97,2.38,4.08,3.92,1.55,2.05,2.47,4.56,2.87,7.11.36,2.58.22,5.14-.69,7.67,0,0-1.89-.64-1.89-.64h0Z"/>
    </g>
    <g>
      <path class="cls-1" d="m126.77,330.47c-21.14-11.23-36.28-31.51-45.67-53.14-6.04-14.07-8.93-29.32-10.48-44.48-.64-5.52-.65-11.04-1.88-16.51,0,0,2-.08,2-.08-.62,5.52.13,11.01.88,16.47,5.28,32.08,18.69,64.06,43.09,86.19,4,3.65,8.37,7.04,12.96,9.76l-.89,1.79h0Z"/>
      <path class="cls-1" d="m75.68,235.38c4.39-5.81,5.27-13.87,3.32-20.8-1.08-3.93-3.1-7.61-5.34-11.01-1.02-1.41-2.18-2.71-3.18-4.12-.16-.31-.41-.69-.65-.93-.23-.27-.51-.33-.33-.28.03-.02.07.02.09-.01.01,0,0,.03-.01.03-.02.01-.05.09-.09.12-2.28,5.58-5.08,11.22-6.45,17.03-1.84,6.96-1.41,14.19,3.4,19.87,0,0-1.38,1.45-1.38,1.45-6.88-4.95-8.1-14.67-5.73-22.29,1.31-4.77,3.62-9.06,6.01-13.25.61-1.06,1.16-2.04,1.62-3.08.42-.96,1.27-2.11,2.46-2.11,1.5.02,2.34,1.41,2.92,2.58,0,0-.14-.22-.14-.22,0,0,3.01,4.15,3.01,4.15l1.33,2.2c4.47,7.29,6.52,16.44,4.03,24.8-.74,2.57-1.77,4.88-3.34,7.13,0,0-1.55-1.26-1.55-1.26h0Z"/>
      <path class="cls-1" d="m73.15,266.94c-5.92-6.8-12.74-14.19-22.65-12.76-.84.17-2.54.38-2.04,1.4,5.31,5.3,7.64,14.11,14.74,17.37,2.89,1.39,5.73.57,8.73-.1,0,0,.81,1.83.81,1.83-1.45,1.06-3.3,1.51-5.15,1.56-9.68.11-13.31-10.47-17.51-17.36-.62-1.16-1.71-1.77-2.4-2.9-1.16-2.74,3.57-2.78,5.25-2.86.36-.01,1.98-.06,2.46-.07,3.65.17,7.29,1.16,10.44,3.04,3.86,2.37,7.21,5.6,9.05,9.83,0,0-1.73,1.01-1.73,1.01h0Z"/>
      <path class="cls-1" d="m89.67,300.59c-4.88-5.96-11.88-11.27-19.9-11.14-2.02.03-4.65.07-6.34.96-.34.17-.54.4-.63.56-.03.12.04.42.09.63,1.3,4.06,4.26,7.61,7.67,10.16,5.58,4.34,13.37,4.75,19.55,1.51,0,0,.78,1.84.78,1.84-1.75.6-3.53,1.12-5.35,1.4-5.47.89-11.21-.57-15.63-3.85-3.78-2.92-7.39-6.67-8.86-11.34-.26-.95.61-2.13,1.33-2.53,1.65-1.11,3.97-1.48,5.5-1.68,7.08-1.28,14.4,1.75,19.29,6.86,1.63,1.68,3.04,3.48,4.19,5.58l-1.7,1.05h0Z"/>
      <path class="cls-1" d="m78.11,245.34c4.95-5.14,12.54-12.86,20.04-12.91,1.64.1,7.98.11,5.52,3.06-.72.78-1.8,1.34-2.47,2.01-.15.39-.23.87-.3,1.33-.59,4.13-.83,8.25-3.33,12.01-2.69,4.14-7.92,5.11-12.36,3.47-1.37-.44-2.62-1.08-3.81-1.8l.81-1.83c4.53,1.21,9.75,2.49,12.92-1.65,2.74-3.25,3.22-8.17,4.77-12.16.03-.14.46-.58.55-.59.93-.63,2.22-1.1,2.78-1.98-.07-.24-.87-.55-1.24-.62-3.81-1.07-7.84-.41-11.18,1.81-4.43,2.78-8.18,6.76-11.12,11.04,0,0-1.59-1.22-1.59-1.22h0Z"/>
      <path class="cls-1" d="m90.36,274.39c-.56-4.91.97-10.47,5.22-13.33,2.05-1.44,4.42-2.08,6.61-2.85,4.66-1.63,9.2-3.36,7.29,3.84-1.89,7.3-7.27,20.16-16.84,16.87,0,0,.57-1.92.57-1.92,7.36,1.26,12-11.66,14.6-17.26.16-.53.35-1.15.18-1.38-1.74-.49-3.78.29-5.54.67-4.96.92-7.76,3.95-9.12,8.68-.64,2.07-.91,4.35-.96,6.49l-1.99.18h0Z"/>
      <path class="cls-1" d="m103.39,303.1c-1.72-4.93-.87-10.59,2.18-14.77,1.71-2.25,4.14-3.81,6.23-5.67.48-.36,1.78-1.21,2.27-1.57,1.22-.99,3.62-1.44,4.27.52.41,1.17.19,2.02.2,3.09.27,3.95,1.92,7.54,1.51,11.79-.28,5.49-5.2,11.06-10.9,10.56,0,0-.63-1.9-.63-1.9,3.29-3.27,7.08-4.36,7.79-9.16.69-3.24-.06-6.98-.02-10.48.03-1.65.68-2.7.24-3.58-.92-.41-2.41.87-3.25,1.29-.42.23-1.09.68-1.46.98-2,1.29-3.23,3.43-4.29,5.39-1.09,1.96-1.94,4.03-2.3,6.24-.37,2.17-.37,4.53.04,6.62l-1.89.64h0Z"/>
    </g>
  </g>
</svg>